<svg xmlns="http://www.w3.org/2000/svg" x="0px" y="0px"
width="48" height="48"
viewBox="0 0 172 172"
style=" fill:#000000;"><defs><linearGradient x1="86" y1="146.37451" x2="86" y2="139.10178" gradientUnits="userSpaceOnUse" id="color-1_NByxFfNOgEVD_gr1"><stop offset="0" stop-color="#aeaeae"></stop><stop offset="1" stop-color="#64717c"></stop></linearGradient><linearGradient x1="65.93333" y1="133.36844" x2="106.06667" y2="133.36844" gradientUnits="userSpaceOnUse" id="color-2_NByxFfNOgEVD_gr2"><stop offset="0" stop-color="#b5bcc2"></stop><stop offset="1" stop-color="#b0b0b0"></stop></linearGradient></defs><g fill="none" fill-rule="nonzero" stroke="none" stroke-width="1" stroke-linecap="butt" stroke-linejoin="miter" stroke-miterlimit="10" stroke-dasharray="" stroke-dashoffset="0" font-family="none" font-weight="none" font-size="none" text-anchor="none" style="mix-blend-mode: normal"><path d="M0,172v-172h172v172z" fill="none"></path><path d="M86,158.24c-39.89705,0 -72.24,-32.34295 -72.24,-72.24v0c0,-39.89705 32.34295,-72.24 72.24,-72.24h0c39.89705,0 72.24,32.34295 72.24,72.24v0c0,39.89705 -32.34295,72.24 -72.24,72.24z" fill="#ecf0f1"></path><g><path d="M47.58667,70.32184c-5.2976,-3.3368 -17.372,-15.5316 -11.2058,-43.90587c16.5034,1.86047 33.19887,9.60047 39.23607,27.79233c6.0372,18.19187 -28.03027,16.11353 -28.03027,16.11353z" fill="#e46301"></path><path d="M45.08407,37.33511c0,0 18.24347,7.8174 20.84927,20.84927c-5.2116,5.2116 -10.4232,7.8174 -10.4232,7.8174c0,0 -10.42607,-5.2116 -10.42607,-28.66667z" fill="#cdd2d6"></path><circle cx="30" cy="47.02388" transform="scale(2.86667,2.86667)" r="4" fill="url(#color-1_NByxFfNOgEVD_gr1)"></circle><path d="M79.52993,48.80177h6.47007v80.26667c-24.89987,-1.55947 -38.77453,-16.05907 -54.46667,-40.13333l20.06667,-22.93333c8.65733,-11.01947 13.9148,-17.2 27.92993,-17.2z" fill="#ec8801"></path><path d="M31.53333,88.93511c11.4638,17.58413 19.2984,30.01973 35.475,36.07413c2.85233,-3.35113 10.50633,-13.52493 10.39167,-27.47413c-0.12613,-15.33667 -20.14407,-20.96107 -29.79613,-27.27347c-0.76827,0.83707 -16.07053,18.67347 -16.07053,18.67347z" fill="#e46301"></path><path d="M32.9982,103.31718c0,0 12.66493,28.1908 41.3316,25.8c4.77873,-7.1638 0.20353,-11.5154 0.20353,-11.5154c-3.16767,-9.8728 -20.03513,-26.22713 -41.53513,-14.2846z" fill="#cdd2d6"></path><path d="M57.33333,92.27764l14.33333,8.12413c0,0 -2.86667,-18.9544 -14.33333,-8.12413z" fill="#5c2415"></path><path d="M124.59967,70.32184c5.332,-3.33967 17.48093,-15.5316 11.27747,-43.90587c-16.60947,1.86047 -33.41387,9.60047 -39.48833,27.79233c-6.07447,18.19187 28.21087,16.11353 28.21087,16.11353z" fill="#e46301"></path><path d="M126.91593,37.33511c0,0 -18.24347,7.8174 -20.84927,20.84927c5.2116,5.2116 10.4232,7.8174 10.4232,7.8174c0,0 10.42607,-5.2116 10.42607,-28.66667z" fill="#cdd2d6"></path><path d="M92.47007,48.80177h-6.47007v80.26667c24.89987,-1.55947 38.77453,-16.05907 54.46667,-40.13333l-20.06667,-22.93333c-8.65733,-11.01947 -13.9148,-17.2 -27.92993,-17.2z" fill="#ec8801"></path><path d="M140.46667,88.93511c-11.4638,17.58413 -19.2984,30.01973 -35.475,36.07413c-2.85233,-3.35113 -10.50633,-13.52493 -10.39167,-27.47413c0.12613,-15.33667 20.14407,-20.96107 29.79613,-27.27347c0.76827,0.83707 16.07053,18.67347 16.07053,18.67347z" fill="#e46301"></path><path d="M139.0018,103.31718c0,0 -12.66493,28.1908 -41.3316,25.8c-4.77873,-7.1638 -0.20353,-11.5154 -0.20353,-11.5154c3.16767,-9.8728 20.03513,-26.22713 41.53513,-14.2846z" fill="#cdd2d6"></path><path d="M114.66667,92.27764l-14.33333,8.12413c0,0 2.86667,-18.9544 14.33333,-8.12413z" fill="#5c2415"></path><path d="M94.6,117.60177c-3.44573,0 -6.49873,1.5308 -8.6,3.90153c-2.10127,-2.37073 -5.15427,-3.90153 -8.6,-3.90153c-6.33247,0 -11.46667,5.0654 -11.46667,11.31473c0,6.24933 5.1342,11.31473 11.46667,11.31473c3.44573,0 6.49873,-1.5308 8.6,-3.90153c2.10127,2.3736 5.15427,3.90153 8.6,3.90153c6.33247,0 11.46667,-5.0654 11.46667,-11.31473c0,-6.24933 -5.1342,-11.31473 -11.46667,-11.31473z" fill="#cdd2d6"></path><path d="M74.53333,117.60177c0,8.86947 7.88047,11.46667 11.46667,11.46667c3.5862,0 11.46667,-2.5972 11.46667,-11.46667z" fill="#5c2415"></path><path d="M94.6,134.80178c-3.44573,0 -6.49873,-1.55087 -8.6,-3.956c-2.10127,2.40513 -5.15427,3.956 -8.6,3.956c-5.33773,0 -9.78393,-3.6636 -11.06247,-8.6c-0.23793,0.9202 -0.4042,1.87193 -0.4042,2.86667c0,6.33247 5.1342,11.46667 11.46667,11.46667c3.44573,0 6.49873,-1.55087 8.6,-3.956c2.10127,2.40513 5.15427,3.956 8.6,3.956c6.33247,0 11.46667,-5.1342 11.46667,-11.46667c0,-0.99473 -0.16627,-1.94647 -0.4042,-2.86667c-1.27853,4.9364 -5.72473,8.6 -11.06247,8.6z" fill="url(#color-2_NByxFfNOgEVD_gr2)"></path></g></g></svg>