<svg xmlns="http://www.w3.org/2000/svg" x="0px" y="0px"
width="48" height="48"
viewBox="0 0 172 172"
style=" fill:#000000;"><g fill="none" fill-rule="nonzero" stroke="none" stroke-width="1" stroke-linecap="butt" stroke-linejoin="miter" stroke-miterlimit="10" stroke-dasharray="" stroke-dashoffset="0" font-family="none" font-weight="none" font-size="none" text-anchor="none" style="mix-blend-mode: normal"><path d="M0,172v-172h172v172z" fill="none"></path><path d="M86,158.24c-39.89705,0 -72.24,-32.34295 -72.24,-72.24v0c0,-39.89705 32.34295,-72.24 72.24,-72.24h0c39.89705,0 72.24,32.34295 72.24,72.24v0c0,39.89705 -32.34295,72.24 -72.24,72.24z" fill="#ffffff"></path><g><path d="M129,81.34167c4.35447,-7.6196 8.6,-12.54167 8.6,-41.20833c0,-8.6 -2.86667,-11.46667 -8.95833,-11.46667c-16.48333,0 -28.30833,25.8 -28.30833,25.8c0,0 -5.73333,2.86667 -14.33333,2.86667c-8.6,0 -14.33333,-2.86667 -14.33333,-2.86667c0,0 -11.825,-25.8 -28.30833,-25.8c-5.64733,0 -8.5226,2.46247 -8.91247,9.675c-0.03153,0.5676 -0.04587,1.16387 -0.04587,1.79167c0,28.66667 4.24553,33.58873 8.6,41.20833c0,0 -7.69413,9.2966 -10.95353,20.0036c-0.18633,0.61633 -0.35833,1.23267 -0.51313,1.85473c2.86667,0 11.10833,5.73333 11.10833,11.46667l20.425,14.33333h45.86667l20.425,-14.33333c0,-5.73333 8.24167,-11.46667 11.10833,-11.46667c-2.86667,-11.46667 -11.46667,-21.85833 -11.46667,-21.85833z" fill="#fb8c00"></path><path d="M126.7124,34.63507c0.05733,-0.01433 1.1524,-0.23507 1.2126,-0.23507c0.35833,-0.00287 0.61347,0 0.71667,0c2.41087,0 3.225,0 3.225,5.73333c0,30.1 -8.6,37.26667 -8.6,37.26667c0,0 0,-8.6 -2.86667,-11.46667c-2.15,2.86667 -5.73333,2.86667 -5.73333,2.86667c0,0 2.2188,-14.5856 0.71667,-18.63333c0,0 2.60867,-13.5278 11.32907,-15.5316z" fill="#d7ccc8"></path><path d="M128.28333,34.39713c-10.75,0 -19.35,22.93333 -19.35,22.93333c0,0 2.86667,-2.86667 5.73333,-2.86667c0,5.7362 0,10.75287 0,14.3362c0,0 5.73333,-8.6 5.73333,-20.06667c0,-9.675 8.6,-14.33333 8.6,-14.33333z" fill="#bcaaa4"></path><path d="M45.2876,34.63507c-0.05733,-0.01433 -1.1524,-0.23507 -1.2126,-0.23507c-0.35833,-0.00287 -0.61347,0 -0.71667,0c-2.41087,0 -3.225,0 -3.225,5.73333c0,30.1 8.6,37.26667 8.6,37.26667c0,0 0,-8.6 2.86667,-11.46667c2.15,2.86667 5.73333,2.86667 5.73333,2.86667c0,0 -2.2188,-14.5856 -0.71667,-18.63333c0,0 -2.60867,-13.5278 -11.32907,-15.5316z" fill="#d7ccc8"></path><path d="M43.71667,34.39713c10.75,0 19.35,22.93333 19.35,22.93333c0,0 -2.86667,-2.86667 -5.73333,-2.86667c0,5.7362 0,10.75287 0,14.3362c0,0 -5.73333,-8.6 -5.73333,-20.06667c0,-9.675 -8.6,-14.33333 -8.6,-14.33333z" fill="#bcaaa4"></path><path d="M97.10833,88.86667c3.225,-5.73333 14.69167,-8.6 14.69167,-8.6v2.86667c3.58333,0 5.73333,-2.86667 5.73333,-2.86667c0,0 0,8.6 -2.86667,11.46667c-6.8198,6.8198 -18.92,9.28227 -20.06667,14.33333c0,-4.8074 -0.33827,-12.14033 2.50833,-17.2z" fill="#ff9800"></path><path d="M94.6,108.86453c0,7.02047 7.36733,14.40213 7.36733,14.40213c0,0 18.43267,-8.4366 18.43267,-34.05027c0,0 -2.86667,-0.34973 -11.46667,-0.34973c-11.46667,0 -14.33333,8.06967 -14.33333,19.99787z" fill="#f57c00"></path><path d="M74.89167,88.86667c-3.225,-5.73333 -14.69167,-8.6 -14.69167,-8.6v2.86667c-3.58333,0 -5.73333,-2.86667 -5.73333,-2.86667c0,0 0,8.6 2.86667,11.46667c6.8198,6.8198 18.92,9.28227 20.06667,14.33333c0,-4.8074 0.33827,-12.14033 -2.50833,-17.2z" fill="#ff9800"></path><path d="M63.06667,88.86667c-8.6,0 -11.46667,0 -11.46667,0c0,25.8774 18.43267,34.4 18.43267,34.4c0,0 7.36733,-7.45907 7.36733,-14.54833c0,-12.05147 -2.86667,-19.85167 -14.33333,-19.85167zM86,51.6c-8.6,0 -14.33333,2.86667 -14.33333,2.86667c0,0 2.86667,7.88333 2.86667,11.46667c0,0 4.65833,-0.35833 5.73333,-2.86667c0,3.225 5.73333,5.73333 5.73333,5.73333c0,0 5.73333,-2.50833 5.73333,-5.73333c1.075,2.50833 5.73333,2.86667 5.73333,2.86667c0,-3.58333 2.86667,-11.46667 2.86667,-11.46667c0,0 -5.73333,-2.86667 -14.33333,-2.86667z" fill="#f57c00"></path><path d="M140.46667,111.8c0,0 -5.73333,-2.86667 -20.06667,-2.86667c-14.33333,0 -18.63333,14.33333 -18.63333,14.33333l-3.80407,17.09107c0,0 33.90407,-8.8494 39.6374,-17.09107c-5.73333,0 -8.6,-2.86667 -8.6,-2.86667c8.6,-1.43333 11.46667,-8.6 11.46667,-8.6zM51.6,108.93333c-14.33333,0 -20.06667,2.86667 -20.06667,2.86667c0,0 2.86667,7.16667 11.46667,8.6c0,0 -2.86667,2.86667 -8.6,2.86667c5.73333,8.24167 39.6374,17.09107 39.6374,17.09107l-3.80407,-17.09107c0,0 -4.3,-14.33333 -18.63333,-14.33333z" fill="#d7ccc8"></path><path d="M91.73333,120.4h-5.7104h-0.02293h-0.02293h-5.7104c-8.70893,0 -11.46667,2.26753 -11.46667,8.6c0,8.6 5.6244,14.33333 14.33333,14.33333h2.84373h0.02293h0.02293h2.84373c8.70893,0 14.33333,-5.73333 14.33333,-14.33333c0,-6.33247 -2.75773,-8.6 -11.46667,-8.6z" fill="#bcaaa4"></path><path d="M78.6556,142.69693v0c0.08027,0.02293 0.16053,0.04587 0.2408,0.06593c0.6536,0.16627 1.33013,0.29813 2.03533,0.38413c0.71953,0.08887 1.43333,0.18633 2.2016,0.18633h2.84373h0.02293h0.02293h2.84373c0.67367,0 1.29287,-0.0946 1.92927,-0.1634c0.0516,-0.03153 0.1032,-0.0086 0.1548,-0.01433c0.04587,-0.00573 0.0946,-0.00573 0.14047,-0.01147v0c0.69947,-0.086 1.3674,-0.21787 2.01527,-0.38413c0.08313,-0.02007 0.16627,-0.04587 0.24653,-0.0688c0.0086,-0.00287 0.01433,-0.00287 0.02293,-0.00573v0c1.8662,-0.51313 3.50307,-1.3416 4.8848,-2.45673c-6.53027,-0.1204 -11.90527,-6.22353 -11.88807,-8.7204h-0.731c0,2.49973 -5.375,8.6 -11.90527,8.7204c1.39033,1.12373 3.03867,1.95793 4.9192,2.4682z" fill="#a1887f"></path><path d="M86.02293,120.4086c-0.0086,0 -0.01433,0 -0.02293,0c-0.0086,0 -0.01433,0 -0.02293,0c-4.7386,0 -8.57707,-0.301 -8.57707,2.8638c0,3.1648 5.7792,8.59427 8.62293,8.59427c2.84373,0 8.57707,-5.42947 8.57707,-8.59427c0,-3.1648 -3.84133,-2.8638 -8.57707,-2.8638z" fill="#3e2723"></path><path d="M106.78333,94.6c6.10313,0 7.88333,0 7.88333,0c0,0 -2.9412,2.3048 -2.86667,5.01667c0.10893,3.88147 -2.451,9.31667 -8.6,9.31667c-3.225,0 -8.6,-0.00287 -8.6,-0.00287c0,0 -0.02007,-14.33047 12.18333,-14.33047z" fill="#795548"></path><path d="M104.63333,97.46667c1.47347,0 2.66027,0.15193 3.69513,0.3526c0.37553,0.75967 0.60487,1.6082 0.60487,2.51407c0,3.16767 -2.56567,5.73333 -5.73333,5.73333c-2.06973,0 -3.86713,-1.10653 -4.87333,-2.74913c0.88007,-2.9068 2.666,-5.85087 6.30667,-5.85087z" fill="#ffb300"></path><path d="M103.68447,97.56413c1.34447,0.23793 2.3822,1.3588 2.3822,2.7692c0,1.5824 -1.28427,2.86667 -2.86667,2.86667c-1.5824,0 -2.86667,-1.28427 -2.86667,-2.86667c0,-0.41567 0.09747,-0.8084 0.258,-1.16387c0.80267,-0.82273 1.82033,-1.40467 3.09313,-1.60533z" fill="#212121"></path><path d="M65.1966,94.6c-6.10313,0 -7.86327,0 -7.86327,0c0,0 2.9412,2.3048 2.86667,5.01667c-0.10893,3.88147 2.451,9.31667 8.6,9.31667c3.225,0 8.6,-0.00287 8.6,-0.00287c0,0 0,-14.33047 -12.2034,-14.33047z" fill="#795548"></path><path d="M67.36667,97.46667c-1.47347,0 -2.66027,0.15193 -3.69513,0.3526c-0.37553,0.75967 -0.60487,1.6082 -0.60487,2.51407c0,3.16767 2.56567,5.73333 5.73333,5.73333c2.06973,0 3.86713,-1.10653 4.87333,-2.74913c-0.88007,-2.9068 -2.666,-5.85087 -6.30667,-5.85087z" fill="#ffb300"></path><path d="M68.31553,97.56413c-1.34447,0.23793 -2.3822,1.3588 -2.3822,2.7692c0,1.5824 1.28427,2.86667 2.86667,2.86667c1.5824,0 2.86667,-1.28427 2.86667,-2.86667c0,-0.41567 -0.09747,-0.8084 -0.258,-1.16387c-0.80267,-0.82273 -1.82033,-1.40467 -3.09313,-1.60533z" fill="#212121"></path></g></g></svg>