<svg xmlns="http://www.w3.org/2000/svg" x="0px" y="0px"
width="48" height="48"
viewBox="0 0 172 172"
style=" fill:#000000;"><g fill="none" fill-rule="nonzero" stroke="none" stroke-width="1" stroke-linecap="butt" stroke-linejoin="miter" stroke-miterlimit="10" stroke-dasharray="" stroke-dashoffset="0" font-family="none" font-weight="none" font-size="none" text-anchor="none" style="mix-blend-mode: normal"><path d="M0,172v-172h172v172z" fill="none"></path><path d="M86,158.24c-39.89705,0 -72.24,-32.34295 -72.24,-72.24v0c0,-39.89705 32.34295,-72.24 72.24,-72.24h0c39.89705,0 72.24,32.34295 72.24,72.24v0c0,39.89705 -32.34295,72.24 -72.24,72.24z" fill="#cccccc"></path><g><path d="M128.82908,81.38825c4.35447,-7.6196 13.0376,-27.30213 6.5876,-53.23973c-11.7046,9.4686 -27.72067,7.27273 -35.25427,26.36473c0,0 -5.7018,2.8466 -14.25593,2.8638c-8.557,-0.0172 -14.2588,-2.8638 -14.2588,-2.8638c-7.5336,-19.092 -23.55253,-16.89613 -35.25427,-26.36473c-6.45,25.9376 2.23313,45.62013 6.5876,53.23973c-8.6,7.525 -4.39173,13.31853 -13.86033,16.61233c4.25413,11.66447 8.37067,14.41073 13.502,16.71267l20.425,14.33333h22.82727h0.0602h22.82727l20.425,-14.33333c5.13133,-2.30193 9.24787,-5.0482 13.502,-16.71267c-9.4686,-3.2938 -5.26033,-9.08733 -13.86033,-16.61233z" fill="#fb8c00"></path><path d="M38.04174,35.08012c0,30.1 10.6726,42.36647 10.6726,42.36647c0,0 0,-8.6 2.86667,-11.46667c2.15,2.86667 9.69793,2.19587 9.69793,2.19587c0,0 -0.91447,-10.8876 -4.68127,-17.96253c-4.7644,-9.16473 -9.50013,-6.83127 -18.55593,-15.13313z" fill="#d7ccc8"></path><path d="M98.49401,93.52572c3.65213,-6.49013 16.67827,-12.05147 16.67827,-12.05147v3.24507c4.05633,0 6.49013,-3.24507 6.49013,-3.24507c0,0 0,9.73807 -3.24507,12.98313c-7.7228,7.7228 -21.4226,10.5092 -22.7212,16.2282c0,-5.4438 -0.42713,-11.43227 2.79787,-17.15987z" fill="#ff9800"></path><path d="M94.21408,108.70472c0.28953,7.01473 7.73427,14.60853 7.73427,14.60853c0,0 19.16367,-10.40313 19.16367,-36.0168c-0.00287,0.56187 -5.2804,2.8036 -12.44133,3.75247c-12.4442,1.64547 -14.82067,8.76053 -14.4566,17.6558z" fill="#f57c00"></path><path d="M85.98101,51.64658c-8.6,0 -14.33333,2.86667 -14.33333,2.86667c0,0 2.86667,7.88333 2.86667,11.46667c0,0 4.65833,-0.35833 5.73333,-2.86667c0,3.225 5.73333,5.73333 5.73333,5.73333c0,0 5.73333,-2.50833 5.73333,-5.73333c1.075,2.50833 5.73333,2.86667 5.73333,2.86667c0,-3.58333 2.86667,-11.46667 2.86667,-11.46667c0,0 -5.73333,-2.86667 -14.33333,-2.86667z" fill="#f57c00"></path><path d="M106.01614,95.16545c6.96887,-0.30673 11.4982,-0.51887 11.4982,-0.51887c0,0 -2.7606,1.84613 -3.2766,5.01667c-1.88627,7.1896 -7.5508,9.31667 -14.57987,9.31667c-3.68367,0 -5.07687,-0.00287 -5.07687,-0.00287c0,0 -1.09793,-13.26407 11.43513,-13.8116z" fill="#795548"></path><path d="M97.44768,103.24658c2.35067,-5.73333 2.35067,-5.73333 11.46667,-6.43567c-2.064,6.43567 -6.76533,6.43567 -11.46667,6.43567z" fill="#ffb300"></path><path d="M100.46914,98.28152c0.34113,1.20113 1.4018,2.0984 2.71187,2.0984c1.5824,0 2.86667,-1.28427 2.86667,-2.86667c0,-0.1634 -0.06593,-0.30387 -0.09173,-0.45867c-2.80073,0.25227 -4.4032,0.53607 -5.4868,1.22693z" fill="#212121"></path><path d="M76.59841,110.68558c-1.2986,-5.719 -14.9984,-8.50827 -22.7212,-16.2282c-3.24507,-3.24507 -3.24507,-12.98313 -3.24507,-12.98313c0,0 2.4338,3.24507 6.49013,3.24507v-3.24507c0,0 13.02613,5.55847 16.67827,12.05147c3.22213,5.7276 2.79787,11.71607 2.79787,17.15987z" fill="#ff9800"></path><path d="M63.62388,91.04892c-7.1638,-0.94887 -12.43847,-3.18773 -12.44133,-3.75247c-0.00287,25.61367 19.16367,36.0168 19.16367,36.0168c0,0 7.44473,-7.5938 7.73427,-14.60853c0.36407,-8.89527 -2.01527,-16.01033 -14.4566,-17.6558z" fill="#f57c00"></path><path d="M77.71354,108.97705c0,0 -1.3932,0.00287 -5.07687,0.00287c-7.0262,0 -12.6936,-2.12707 -14.57987,-9.31667c-0.516,-3.17053 -3.2766,-5.01667 -3.2766,-5.01667c0,0 4.52933,0.21213 11.4982,0.51887c12.53307,0.54753 11.43513,13.8116 11.43513,13.8116z" fill="#795548"></path><path d="M63.38021,96.81092c9.116,0.70233 9.116,0.70233 11.46667,6.43567c-4.70133,0 -9.40553,0 -11.46667,-6.43567z" fill="#ffb300"></path><path d="M71.82254,98.28152c-0.34113,1.20113 -1.39893,2.0984 -2.709,2.0984c-1.5824,0 -2.86667,-1.28427 -2.86667,-2.86667c0,-0.1634 0.06593,-0.30387 0.09173,-0.45867c2.80073,0.25227 4.4032,0.53607 5.48393,1.22693z" fill="#212121"></path><path d="M61.27894,68.17578c0,0 -0.91447,-10.8876 -4.68127,-17.96253c-4.7644,-9.16473 -9.50013,-6.83127 -18.55593,-15.13313c0,0.20353 0.01147,0.387 0.01433,0.58767c6.39267,16.3142 10.69267,10.5952 14.61713,31.25813c2.8982,1.7544 8.60573,1.24987 8.60573,1.24987z" fill="#bcaaa4"></path><path d="M115.21241,50.21325c-3.7668,7.07493 -4.68127,17.96253 -4.68127,17.96253c0,0 7.54793,0.6708 9.69793,-2.19587c2.86667,2.86667 2.86667,11.46667 2.86667,11.46667c0,0 10.6726,-12.26647 10.6726,-42.36647c-9.0558,8.30187 -13.79153,5.9684 -18.55593,15.13313z" fill="#d7ccc8"></path><path d="M110.53114,68.17578c0,0 0.91447,-10.8876 4.68127,-17.96253c4.7644,-9.16473 9.50013,-6.83127 18.55593,-15.13313c0,0.20353 -0.01147,0.387 -0.01433,0.58767c-6.39267,16.3142 -10.69267,10.5952 -14.61713,31.25813c-2.8982,1.7544 -8.60573,1.24987 -8.60573,1.24987z" fill="#bcaaa4"></path><path d="M85.87494,120.44658h5.68747c5.3234,0 8.40507,0.86287 10.0104,2.967l0.02293,-0.10033c0,0 4.58093,-17.16273 18.63333,-14.33333c11.55553,2.32773 17.2,5.73333 22.93333,2.86667c0,0 0,8.6 -14.33333,8.6c0,0 2.86667,2.86667 8.6,2.86667c-10.38307,11.60427 -23.97107,17.23153 -42.29193,17.03373c-2.408,1.9092 -2.68033,3.03293 -6.4414,3.03293h-2.8208z" fill="#d7ccc8"></path><path d="M85.93514,120.44658h-5.68747c-5.3234,0 -8.40507,0.86287 -10.0104,2.967l-0.02293,-0.10033c0,0 -4.58093,-17.16273 -18.63333,-14.33333c-11.55553,2.32773 -17.2,5.73333 -22.93333,2.86667c0,0 0,8.6 14.33333,8.6c0,0 -2.86667,2.86667 -8.6,2.86667c10.38307,11.60427 23.97107,17.23153 42.29193,17.03373c2.408,1.9092 2.67747,3.03293 6.4414,3.03293h2.8208z" fill="#d7ccc8"></path><path d="M85.97528,131.22525h-0.34113c0,6.04867 -5.35207,8.2216 -10.41173,7.63107c3.07307,3.6206 5.8996,5.461 10.75287,5.461z" fill="#8d6e63"></path><path d="M85.88641,131.22525h0.34113c0,6.04867 5.35207,8.2216 10.41173,7.63107c-3.07307,3.6206 -5.8996,5.461 -10.75287,5.461z" fill="#8d6e63"></path><path d="M88.26861,130.08432c-0.22933,2.7778 -0.9288,5.32913 -2.86667,7.63107c-0.95747,1.11227 -2.322,2.0038 -3.7582,2.3564c-1.4276,0.4042 -2.85233,0.40133 -4.20827,0.1462c-1.36453,-0.23793 -2.6746,-0.8342 -3.81553,-1.67127c-1.1524,-0.84853 -1.97513,-2.00667 -2.57713,-3.13613c-0.60773,-1.13807 -1.00907,-2.2962 -1.4018,-3.32247c-0.19493,-0.5246 -0.40133,-0.9718 -0.60487,-1.33873c-0.22073,-0.32107 -0.34973,-0.40993 -0.44433,-0.46153l-0.43,-0.24367c-0.57047,-0.32393 -0.77113,-1.04633 -0.4472,-1.6168c0.24367,-0.42713 0.71093,-0.64787 1.1696,-0.5934c1.075,0.12613 1.84613,0.85427 2.2876,1.462c0.40993,0.60487 0.7052,1.19253 0.94887,1.7286c0.4988,1.08647 0.92593,2.07833 1.46487,2.9326c1.02627,1.7544 2.5542,2.68893 4.3946,2.91827c1.86333,0.2236 3.55467,-0.33253 4.4892,-1.6426c0.9976,-1.2642 1.49927,-3.41133 1.50213,-5.1772v-0.14907c0,-1.18967 0.96607,-2.15287 2.15573,-2.15287c1.18967,0 2.15287,0.96607 2.15287,2.15573c-0.00573,0.05733 -0.0086,0.11753 -0.01147,0.17487z" fill="#a1887f"></path><path d="M88.10808,130.05565c0,1.76587 0.50453,3.913 1.50213,5.1772c0.93453,1.31293 2.62587,1.8662 4.4892,1.6426c1.84327,-0.22933 3.36833,-1.16387 4.3946,-2.91827c0.53607,-0.85713 0.9632,-1.84613 1.46487,-2.9326c0.24367,-0.53607 0.5418,-1.1266 0.94887,-1.7286c0.44147,-0.60773 1.21547,-1.333 2.2876,-1.462c0.65073,-0.0774 1.2384,0.387 1.3158,1.03773c0.05733,0.48733 -0.1892,0.94313 -0.5934,1.1696l-0.43287,0.24367c-0.0946,0.05447 -0.2236,0.14047 -0.44433,0.46153c-0.20353,0.36693 -0.40993,0.81413 -0.60487,1.33873c-0.3956,1.02627 -0.79693,2.18727 -1.4018,3.32247c-0.602,1.12947 -1.42473,2.2876 -2.57713,3.13613c-1.14093,0.83707 -2.451,1.43333 -3.81553,1.67127c-1.35593,0.25513 -2.78067,0.258 -4.20827,-0.1462c-1.4362,-0.35547 -2.80073,-1.247 -3.7582,-2.3564c-1.94073,-2.30193 -2.6402,-4.85327 -2.86667,-7.63107c-0.09747,-1.18393 0.78547,-2.22453 1.9694,-2.322c1.18393,-0.09747 2.22453,0.78547 2.322,1.9694c0.00573,0.05733 0.00573,0.11467 0.0086,0.16913z" fill="#a1887f"></path><path d="M86.00394,120.45518c-0.0086,0 -0.01433,0 -0.02293,0c-0.0086,0 -0.01433,0 -0.02293,0c-4.7386,0 -8.57707,-0.301 -8.57707,2.8638c0,3.1648 5.7792,8.59427 8.62293,8.59427c2.84373,0 8.57707,-5.42947 8.57707,-8.59427c0,-3.1648 -3.84133,-2.8638 -8.57707,-2.8638z" fill="#3e2723"></path></g></g></svg>