<svg xmlns="http://www.w3.org/2000/svg" x="0px" y="0px"
width="24" height="24"
viewBox="0 0 172 172"
style=" fill:#000000;"><g fill="none" fill-rule="nonzero" stroke="none" stroke-width="1" stroke-linecap="butt" stroke-linejoin="miter" stroke-miterlimit="10" stroke-dasharray="" stroke-dashoffset="0" font-family="none" font-weight="none" font-size="none" text-anchor="none" style="mix-blend-mode: normal"><path d="M0,172v-172h172v172z" fill="none"></path><g fill="#cccccc"><path d="M86,14.33333c-5.934,0 -10.75,4.816 -10.75,10.75v4.98307c-18.53885,4.77861 -32.25,21.56799 -32.25,41.60026v35.83333h86v-35.83333c0,-20.03227 -13.71115,-36.82165 -32.25,-41.60026v-4.98307c0,-5.934 -4.816,-10.75 -10.75,-10.75zM35.83333,121.83333c-2.58456,-0.03655 -4.98858,1.32136 -6.29153,3.55376c-1.30295,2.2324 -1.30295,4.99342 0,7.22582c1.30295,2.2324 3.70697,3.59031 6.29153,3.55376h37.76497c-1.26198,2.17784 -1.92819,4.64961 -1.93164,7.16667c0,7.91608 6.41725,14.33333 14.33333,14.33333c7.91608,0 14.33333,-6.41725 14.33333,-14.33333c-0.0077,-2.51833 -0.67877,-4.99018 -1.94564,-7.16667h37.77897c2.58456,0.03655 4.98858,-1.32136 6.29153,-3.55376c1.30295,-2.2324 1.30295,-4.99342 0,-7.22582c-1.30295,-2.2324 -3.70697,-3.59031 -6.29153,-3.55376z"></path></g></g></svg>